<?xml version="1.0" encoding="UTF-8" standalone="no"?>
<svg
   viewBox="0 0 495.00001 484.99999"
   version="1.1"
   id="svg21"
   sodipodi:docname="clipboard-remix.svg"
   width="495"
   height="485"
   inkscape:version="1.3 (0e150ed6c4, 2023-07-21)"
   inkscape:export-filename="clipboard-remix.png"
   inkscape:export-xdpi="96"
   inkscape:export-ydpi="96"
   xmlns:inkscape="http://www.inkscape.org/namespaces/inkscape"
   xmlns:sodipodi="http://sodipodi.sourceforge.net/DTD/sodipodi-0.dtd"
   xmlns="http://www.w3.org/2000/svg"
   xmlns:svg="http://www.w3.org/2000/svg"
   xmlns:rdf="http://www.w3.org/1999/02/22-rdf-syntax-ns#"
   xmlns:cc="http://creativecommons.org/ns#"
   xmlns:dc="http://purl.org/dc/elements/1.1/">
  <defs
     id="defs21" />
  <sodipodi:namedview
     id="namedview21"
     pagecolor="#ffffff"
     bordercolor="#000000"
     borderopacity="0.25"
     inkscape:showpageshadow="2"
     inkscape:pageopacity="0.0"
     inkscape:pagecheckerboard="0"
     inkscape:deskcolor="#d1d1d1"
     inkscape:zoom="0.8"
     inkscape:cx="280"
     inkscape:cy="236.25"
     inkscape:window-width="1920"
     inkscape:window-height="1008"
     inkscape:window-x="0"
     inkscape:window-y="0"
     inkscape:window-maximized="1"
     inkscape:current-layer="svg21" />
  <g
     id="g23">
    <ellipse
       style="fill:#efe08e;fill-opacity:1;stroke-width:3.03585;-inkscape-stroke:none;paint-order:markers fill stroke"
       id="path22"
       cx="247.5"
       cy="242.5"
       rx="247.5"
       ry="242.5" />
    <path
       d="m 122.13149,37.90718 255.27918,12.80228 a 16.61,16.61 0 0 1 15.7572,17.4211 L 374.90059,432.38279 A 16.61,16.61 0 0 1 357.47954,448.139 L 102.20036,435.33672 A 16.61,16.61 0 0 1 86.443105,417.91662 L 104.71039,53.66439 a 16.61,16.61 0 0 1 17.4211,-15.75721"
       fill="#aa4400"
       id="path1"
       style="fill:#694c34;fill-opacity:1;stroke:none" />
    <path
       ry="0"
       rx="0"
       d="M 130.99265,63.06259 366.07721,74.8521 349.4037,407.32427 114.31914,395.53476 Z"
       fill="#666666"
       id="path3" />
    <path
       d="M 134.17342,68.0782 362.40659,79.52411 346.21843,402.31845 117.98526,390.87254 Z"
       fill="#ffffff"
       id="path4" />
    <path
       fill-rule="evenodd"
       stroke-width="1.25"
       d="m 217.18406,149.24785 125.14273,6.27591 -0.20852,4.15778 -125.14273,-6.27592 z"
       fill="#b6b6b6"
       id="path5" />
    <path
       fill-rule="evenodd"
       stroke-width="1.25"
       d="m 216.12321,170.40126 125.14273,6.27592 -0.20846,4.15678 -125.14273,-6.27592 z"
       fill="#b6b6b6"
       id="path6" />
    <path
       d="M 247.84262,10.08878 C 232.01151,9.29485 218.64415,21.38549 217.85022,37.2166 l -0.36637,7.30531 c -0.10816,2.15679 0.0334,4.2421 0.38082,6.28236 l -24.56014,-1.23169 c -4.54159,-0.22776 -8.38115,3.24509 -8.60892,7.78668 l -1.1803,23.53542 128.52848,6.44572 1.18025,-23.53443 c 0.22776,-4.54159 -3.24509,-8.38116 -7.78668,-8.60892 l -24.52717,-1.23004 c 0.54915,-1.99389 0.89936,-4.05764 1.00744,-6.21273 l 0.36636,-7.30532 C 283.07792,24.61785 270.95432,11.24884 255.12322,10.4549 l -7.27226,-0.3647 z m 2.68788,19.09059 c 7.34986,0.3686 13.02179,6.63956 12.65319,13.98932 -0.36859,7.34986 -6.6379,12.98883 -13.98766,12.62024 -7.34987,-0.3686 -12.99049,-6.60485 -12.6219,-13.95471 0.3686,-7.34986 6.6066,-13.02344 13.95637,-12.65485 z"
       fill="#b6b6b6"
       id="path7"
       style="fill:#909090;fill-opacity:1" />
    <path
       stroke="#4d4d4d"
       stroke-width="4"
       d="m 147.64702,135.26739 55.34844,2.77573 -2.77573,55.34844 -55.34844,-2.77573 z"
       fill="none"
       id="path8" />
    <path
       stroke="#4d4d4d"
       stroke-width="4"
       d="m 138.71999,313.27368 55.34844,2.77573 -2.77578,55.34944 -55.34844,-2.77573 z"
       fill="none"
       id="path9" />
    <path
       fill-rule="evenodd"
       stroke-width="1.25"
       d="m 215.06236,191.55468 125.14273,6.27592 -0.20846,4.15677 -125.14273,-6.27592 z"
       fill="#b6b6b6"
       id="path10" />
    <path
       fill-rule="evenodd"
       stroke-width="1.25"
       d="m 212.94017,233.8715 125.14273,6.27592 -0.20851,4.15777 -125.14273,-6.27592 z"
       fill="#b6b6b6"
       id="path11" />
    <path
       fill-rule="evenodd"
       stroke-width="1.25"
       d="m 211.87933,255.02491 125.14273,6.27592 -0.20852,4.15778 -125.14273,-6.27592 z"
       fill="#b6b6b6"
       id="path12" />
    <path
       fill-rule="evenodd"
       stroke-width="1.25"
       d="m 210.81848,276.17833 125.14273,6.27592 -0.20851,4.15777 -125.14273,-6.27592 z"
       fill="#b6b6b6"
       id="path13" />
    <path
       fill-rule="evenodd"
       stroke-width="1.25"
       d="m 208.69679,318.48516 125.14273,6.27592 -0.20846,4.15678 -125.14273,-6.27592 z"
       fill="#b6b6b6"
       id="path14" />
    <path
       fill-rule="evenodd"
       stroke-width="1.25"
       d="m 207.63544,339.64856 125.14273,6.27592 -0.20846,4.15678 -125.14273,-6.27592 z"
       fill="#b6b6b6"
       id="path15" />
    <path
       fill-rule="evenodd"
       stroke-width="1.25"
       d="m 206.5746,360.80198 125.14273,6.27592 -0.20852,4.15777 -125.14273,-6.27592 z"
       fill="#b6b6b6"
       id="path16" />
    <path
       stroke="#4d4d4d"
       stroke-width="4"
       d="m 143.18325,224.27553 55.34844,2.77573 -2.77577,55.34944 -55.34845,-2.77573 z"
       fill="none"
       id="path17" />
    <path
       d="m 208.72236,114.3302 -12.56366,4.25035 c -0.658,1.0757 -1.2668,2.1925 -1.82633,3.33692 -1.67073,3.35082 -3.48949,6.58889 -5.34369,9.81466 -2.8034,5.08678 -5.4403,10.29344 -8.35736,15.30262 -3.0985,5.68043 -6.24589,11.32337 -9.15538,17.13193 -0.33456,0.66178 -0.66883,1.31956 -1.00719,1.97904 -1.14168,-2.40681 -2.28751,-4.80881 -3.35818,-7.25601 l -0.49949,-1.22466 c -0.14482,-0.40045 -0.26926,-0.79999 -0.42374,-1.19572 -0.36662,-0.93904 -0.87063,-1.8281 -1.11136,-2.82561 l -12.36621,5.86347 c 1.03813,1.56867 1.8859,3.24974 2.66913,4.99566 1.42965,2.78 2.848,5.57174 4.14953,8.43282 0.96691,2.1244 1.876,4.28364 2.74145,6.46463 0.0486,0.11117 0.41073,0.95997 0.51491,1.10087 3.24317,4.38224 11.20146,-4.69985 13.06611,-5.74427 0.25744,-0.14408 0.24134,-0.58965 0.36342,-0.8837 0.16491,-0.39734 0.32901,-0.79252 0.49646,-1.18863 1.82124,-4.26773 3.98984,-8.33011 5.94814,-12.51778 2.79002,-5.74037 5.72571,-11.38651 8.78377,-16.95133 2.9786,-5.15818 5.9251,-10.3352 8.93401,-15.47094 2.11797,-3.27262 4.02137,-6.7088 6.0115,-10.07755 0.68013,-1.19934 1.51341,-2.26233 2.33439,-3.33546 z"
       fill="#ff0000"
       id="path18" />
    <g
       transform="matrix(0.5871621,0.02944623,-0.02944623,0.5871621,535.99221,203.21376)"
       fill="#ff0000"
       id="g20">
      <path
         d="m -645.21,240.1 c 2.7163,2.3071 5.7846,4.1435 8.6179,6.2907 1.0666,0.8083 2.0853,1.6779 3.1279,2.5168 8.0327,6.3913 16.08,12.758 24.275,18.94 6.8048,5.1361 13.706,10.147 20.727,14.984 2.9104,2.0047 5.8679,3.9845 8.4676,6.3938 0.0151,0.014 2.6937,2.6827 2.8129,2.8015 1.3275,1.4915 2.5811,3.0469 3.7653,4.6539 l -18.422,7.145 c -0.9443,-1.5761 -1.9961,-3.0868 -3.1372,-4.5277 -3.0758,-3.4614 -6.3817,-6.6712 -10.158,-9.3825 -6.509,-5.245 -12.854,-10.688 -19.439,-15.838 -4.3275,-3.3813 -8.6412,-6.7805 -13.101,-9.9882 -3.1381,-2.2572 -5.282,-3.6577 -8.427,-5.8459 -1.184,-0.8238 -2.3571,-1.6633 -3.5357,-2.4949 -4.3042,-2.6545 -8.7242,-5.4615 -13.62,-6.8783 z"
         id="path19" />
      <path
         d="m -656.59,300.53 c 4.2452,-6.2537 8.6436,-12.403 12.932,-18.628 5.1738,-7.6836 10.834,-15.06 17.321,-21.689 1.1842,-1.2101 2.4386,-2.3493 3.6579,-3.524 6.8504,-6.1562 14.155,-11.782 21.68,-17.083 9.7659,-6.3351 20.097,-11.855 30.243,-17.49 0.9625,-0.5346 1.996,-0.9299 2.9925,-1.3982 4.2017,-1.9746 1.2363,-0.6132 5.1881,-2.4068 3.6513,-1.6115 7.3379,-3.1396 11.012,-4.6968 1.8486,-0.7304 3.4866,-1.7769 5.1766,-2.7965 l -20.192,16.337 c -1.6357,0.8808 -3.3501,1.5927 -5.0613,2.3143 -3.4986,1.4852 -7.0506,2.8429 -10.529,4.376 -2.2952,1.0069 -2.3952,1.0354 -4.7941,2.1581 -0.9226,0.4318 -3.6307,1.8409 -2.7597,1.3127 33.37,-20.238 18.285,-10.514 10.781,-6.3716 -7.7891,5.1878 -15.179,10.953 -22.341,16.974 -1.2775,1.1463 -2.5954,2.2491 -3.8324,3.439 -6.5964,6.3456 -12.452,13.429 -17.259,21.224 -0.8654,1.3662 -1.7164,2.7416 -2.5962,4.0986 -2.7387,4.224 -5.8238,8.3286 -7.5335,13.115 l -24.086,10.737 z"
         id="path20" />
    </g>
    <g
       transform="rotate(2.8709831,5782.5369,1176.6453)"
       id="g21">
      <path
         d="m 178.82,493.95 -13.176,1.5157 c -0.8693,0.9134 -1.6993,1.8774 -2.4867,2.8787 -2.3375,2.925 -4.7961,5.7086 -7.2865,8.4726 -3.8096,4.3842 -7.4817,8.9206 -11.386,13.205 -4.2229,4.9026 -8.4857,9.7583 -12.551,14.825 -0.4661,0.5767 -0.9312,1.1496 -1.4005,1.7232 -0.6105,-2.593 -1.2261,-5.1821 -1.7586,-7.7997 l -0.2311,-1.3023 c -0.0574,-0.422 -0.0952,-0.8387 -0.1631,-1.258 -0.1611,-0.9951 -0.467,-1.9702 -0.4929,-2.9961 l -13.322,3.1342 c 0.6853,1.7518 1.161,3.5734 1.5599,5.445 0.8136,3.0183 1.6138,6.0458 2.285,9.1165 0.499,2.2802 0.934,4.5822 1.322,6.8963 0.0241,0.1189 0.1998,1.0249 0.2721,1.1844 2.2499,4.9659 11.939,-2.2414 13.982,-2.8706 0.2819,-0.0867 0.3598,-0.5258 0.541,-0.7876 0.2448,-0.3539 0.4882,-0.7057 0.7352,-1.0577 2.6773,-3.7898 5.6511,-7.3058 8.4456,-10.989 3.9339,-5.026 7.9904,-9.9296 12.149,-14.727 3.9958,-4.4172 7.9644,-8.8598 11.985,-13.248 2.7583,-2.7546 5.3412,-5.7141 7.9948,-8.5899 0.9169,-1.0297 1.9549,-1.8939 2.9831,-2.7705 z"
         fill="#ff0000"
         id="path21" />
    </g>
  </g>
  <metadata
     id="metadata21">
    <rdf:RDF>
      <cc:Work>
        <dc:format>image/svg+xml</dc:format>
        <dc:type
           rdf:resource="http://purl.org/dc/dcmitype/StillImage" />
        <cc:license
           rdf:resource="http://creativecommons.org/publicdomain/zero/1.0/" />
        <dc:publisher>
          <cc:Agent
             rdf:about="http://openclipart.org/">
            <dc:title>Openclipart</dc:title>
          </cc:Agent>
        </dc:publisher>
        <dc:date>2013-06-20T07:43:00</dc:date>
        <dc:description>A simple clipboard and paper</dc:description>
        <dc:source>https://openclipart.org/detail/179428/clipboard-by-hellocatfood-179428</dc:source>
        <dc:creator>
          <cc:Agent>
            <dc:title>hellocatfood</dc:title>
          </cc:Agent>
        </dc:creator>
        <dc:subject>
          <rdf:Bag>
            <rdf:li>board</rdf:li>
            <rdf:li>cardboard</rdf:li>
            <rdf:li>checkbox</rdf:li>
            <rdf:li>clipboard</rdf:li>
            <rdf:li>filing</rdf:li>
            <rdf:li>paper</rdf:li>
          </rdf:Bag>
        </dc:subject>
      </cc:Work>
      <cc:License
         rdf:about="http://creativecommons.org/publicdomain/zero/1.0/">
        <cc:permits
           rdf:resource="http://creativecommons.org/ns#Reproduction" />
        <cc:permits
           rdf:resource="http://creativecommons.org/ns#Distribution" />
        <cc:permits
           rdf:resource="http://creativecommons.org/ns#DerivativeWorks" />
      </cc:License>
    </rdf:RDF>
  </metadata>
</svg>
